<?xml version="1.0" encoding="UTF-8"?>
<svg width="24px" height="24px" viewBox="0 0 24 24" version="1.1" xmlns="http://www.w3.org/2000/svg" xmlns:xlink="http://www.w3.org/1999/xlink">
    <!-- Generator: Sketch 43 (38999) - http://www.bohemiancoding.com/sketch -->
    <title>CNY Copy</title>
    <desc>Created with Sketch.</desc>
    <defs>
        <circle id="path-1" cx="12" cy="12" r="12"></circle>
        <circle id="path-3" cx="12" cy="12" r="12"></circle>
        <filter x="-4.2%" y="-4.2%" width="108.3%" height="108.3%" filterUnits="objectBoundingBox" id="filter-5">
            <feGaussianBlur stdDeviation="1" in="SourceAlpha" result="shadowBlurInner1"></feGaussianBlur>
            <feOffset dx="0" dy="0" in="shadowBlurInner1" result="shadowOffsetInner1"></feOffset>
            <feComposite in="shadowOffsetInner1" in2="SourceAlpha" operator="arithmetic" k2="-1" k3="1" result="shadowInnerInner1"></feComposite>
            <feColorMatrix values="0 0 0 0 0   0 0 0 0 0   0 0 0 0 0  0 0 0 0.039232337 0" type="matrix" in="shadowInnerInner1" result="shadowMatrixInner1"></feColorMatrix>
            <feOffset dx="0" dy="-1" in="SourceAlpha" result="shadowOffsetInner2"></feOffset>
            <feComposite in="shadowOffsetInner2" in2="SourceAlpha" operator="arithmetic" k2="-1" k3="1" result="shadowInnerInner2"></feComposite>
            <feColorMatrix values="0 0 0 0 0   0 0 0 0 0   0 0 0 0 0  0 0 0 0.03125 0" type="matrix" in="shadowInnerInner2" result="shadowMatrixInner2"></feColorMatrix>
            <feMerge>
                <feMergeNode in="shadowMatrixInner1"></feMergeNode>
                <feMergeNode in="shadowMatrixInner2"></feMergeNode>
            </feMerge>
        </filter>
    </defs>
    <g id="Page-1" stroke="none" stroke-width="1" fill="none" fill-rule="evenodd">
        <g id="smaller" transform="translate(-302.000000, 0.000000)">
            <g id="CNY-Copy" transform="translate(301.978686, 0.000000)">
                <mask id="mask-2" fill="white">
                    <use xlink:href="#path-1"></use>
                </mask>
                <use id="Mask" fill="#F23434" xlink:href="#path-1"></use>
                <mask id="mask-4" fill="white">
                    <use xlink:href="#path-3"></use>
                </mask>
                <g id="Mask-Copy-2" fill-opacity="1" fill="black">
                    <use filter="url(#filter-5)" xlink:href="#path-3"></use>
                </g>
                <path d="M8.90175715,12.2715087 C8.4589589,12.0387159 7.74181836,12.0383072 7.29824285,12.2715087 L6.60939467,12.6336576 C6.16659642,12.8664504 5.87604412,12.6563252 5.96075951,12.1623966 L6.0923178,11.3953529 C6.17688474,10.9022898 5.95566476,10.2201223 5.59680463,9.87032012 L5.03951475,9.32709674 C4.68128344,8.97790752 4.79133883,8.63664359 5.28727134,8.56458038 L6.05742701,8.45267021 C6.5524905,8.38073327 7.13290958,7.95953923 7.35469734,7.51014814 L7.69912142,6.81226872 C7.92052055,6.36366509 8.27909082,6.36287763 8.50087858,6.81226872 L8.84530266,7.51014814 C9.06670179,7.95875177 9.64664049,8.380607 10.142573,8.45267021 L10.9127287,8.56458038 C11.4077922,8.63651731 11.5193454,8.97729457 11.1604853,9.32709674 L10.6031954,9.87032012 C10.2449641,10.2195093 10.0229668,10.9014243 10.1076822,11.3953529 L10.2392405,12.1623966 C10.3238074,12.6554597 10.0341808,12.866859 9.59060533,12.6336576 L8.90175715,12.2715087 Z" id="Star" fill="#FFC428" mask="url(#mask-4)"></path>
                <path d="M14.6785962,7.24646668 C14.5247318,7.16557537 14.271422,7.16759747 14.1214038,7.24646668 L13.8556968,7.38615711 C13.7018324,7.46704843 13.6016569,7.38945006 13.6303078,7.22240238 L13.6810533,6.9265333 C13.7104388,6.75520275 13.6302386,6.51491569 13.5088714,6.39661187 L13.2939099,6.18707623 C13.169431,6.06573926 13.2122755,5.94648744 13.3800009,5.92211551 L13.6770703,5.8789488 C13.849096,5.85395201 14.0528393,5.70342434 14.1278484,5.55143934 L14.2607019,5.28224876 C14.3376341,5.12636707 14.464289,5.13026377 14.5392981,5.28224876 L14.6721516,5.55143934 C14.7490838,5.70732103 14.9552043,5.85457687 15.1229297,5.8789488 L15.4199991,5.92211551 C15.5920248,5.94711231 15.6274573,6.06877241 15.5060901,6.18707623 L15.2911286,6.39661187 C15.1666497,6.51794885 15.0902958,6.75948563 15.1189467,6.9265333 L15.1696922,7.22240238 C15.1990777,7.39373294 15.0943213,7.46502632 14.9443032,7.38615711 L14.6785962,7.24646668 Z" id="Star-Copy" fill="#FFC428" mask="url(#mask-4)" transform="translate(14.400000, 6.400000) rotate(16.000000) translate(-14.400000, -6.400000) "></path>
                <path d="M16.0785962,10.0464667 C15.9247318,9.96557537 15.671422,9.96759747 15.5214038,10.0464667 L15.2556968,10.1861571 C15.1018324,10.2670484 15.0016569,10.1894501 15.0303078,10.0224024 L15.0810533,9.7265333 C15.1104388,9.55520275 15.0302386,9.31491569 14.9088714,9.19661187 L14.6939099,8.98707623 C14.569431,8.86573926 14.6122755,8.74648744 14.7800009,8.72211551 L15.0770703,8.6789488 C15.249096,8.65395201 15.4528393,8.50342434 15.5278484,8.35143934 L15.6607019,8.08224876 C15.7376341,7.92636707 15.864289,7.93026377 15.9392981,8.08224876 L16.0721516,8.35143934 C16.1490838,8.50732103 16.3552043,8.65457687 16.5229297,8.6789488 L16.8199991,8.72211551 C16.9920248,8.74711231 17.0274573,8.86877241 16.9060901,8.98707623 L16.6911286,9.19661187 C16.5666497,9.31794885 16.4902958,9.55948563 16.5189467,9.7265333 L16.5696922,10.0224024 C16.5990777,10.1937329 16.4943213,10.2650263 16.3443032,10.1861571 L16.0785962,10.0464667 Z" id="Star-Copy-2" fill="#FFC428" mask="url(#mask-4)" transform="translate(15.800000, 9.200000) rotate(16.000000) translate(-15.800000, -9.200000) "></path>
                <path d="M15.6785962,13.4464667 C15.5247318,13.3655754 15.271422,13.3675975 15.1214038,13.4464667 L14.8556968,13.5861571 C14.7018324,13.6670484 14.6016569,13.5894501 14.6303078,13.4224024 L14.6810533,13.1265333 C14.7104388,12.9552028 14.6302386,12.7149157 14.5088714,12.5966119 L14.2939099,12.3870762 C14.169431,12.2657393 14.2122755,12.1464874 14.3800009,12.1221155 L14.6770703,12.0789488 C14.849096,12.053952 15.0528393,11.9034243 15.1278484,11.7514393 L15.2607019,11.4822488 C15.3376341,11.3263671 15.464289,11.3302638 15.5392981,11.4822488 L15.6721516,11.7514393 C15.7490838,11.907321 15.9552043,12.0545769 16.1229297,12.0789488 L16.4199991,12.1221155 C16.5920248,12.1471123 16.6274573,12.2687724 16.5060901,12.3870762 L16.2911286,12.5966119 C16.1666497,12.7179488 16.0902958,12.9594856 16.1189467,13.1265333 L16.1696922,13.4224024 C16.1990777,13.5937329 16.0943213,13.6650263 15.9443032,13.5861571 L15.6785962,13.4464667 Z" id="Star-Copy-3" fill="#FFC428" mask="url(#mask-4)" transform="translate(15.400000, 12.600000) rotate(16.000000) translate(-15.400000, -12.600000) "></path>
                <path d="M14.2785962,16.2464667 C14.1247318,16.1655754 13.871422,16.1675975 13.7214038,16.2464667 L13.4556968,16.3861571 C13.3018324,16.4670484 13.2016569,16.3894501 13.2303078,16.2224024 L13.2810533,15.9265333 C13.3104388,15.7552028 13.2302386,15.5149157 13.1088714,15.3966119 L12.8939099,15.1870762 C12.769431,15.0657393 12.8122755,14.9464874 12.9800009,14.9221155 L13.2770703,14.8789488 C13.449096,14.853952 13.6528393,14.7034243 13.7278484,14.5514393 L13.8607019,14.2822488 C13.9376341,14.1263671 14.064289,14.1302638 14.1392981,14.2822488 L14.2721516,14.5514393 C14.3490838,14.707321 14.5552043,14.8545769 14.7229297,14.8789488 L15.0199991,14.9221155 C15.1920248,14.9471123 15.2274573,15.0687724 15.1060901,15.1870762 L14.8911286,15.3966119 C14.7666497,15.5179488 14.6902958,15.7594856 14.7189467,15.9265333 L14.7696922,16.2224024 C14.7990777,16.3937329 14.6943213,16.4650263 14.5443032,16.3861571 L14.2785962,16.2464667 Z" id="Star-Copy-4" fill="#FFC428" mask="url(#mask-4)" transform="translate(14.000000, 15.400000) rotate(16.000000) translate(-14.000000, -15.400000) "></path>
            </g>
        </g>
    </g>
</svg>