<?xml version="1.0" encoding="UTF-8"?>
<svg width="25px" height="24px" viewBox="0 0 25 24" version="1.1" xmlns="http://www.w3.org/2000/svg" xmlns:xlink="http://www.w3.org/1999/xlink">
    <!-- Generator: Sketch 43 (38999) - http://www.bohemiancoding.com/sketch -->
    <title>EUR Copy</title>
    <desc>Created with Sketch.</desc>
    <defs>
        <ellipse id="path-1" cx="12" cy="12" rx="12" ry="12"></ellipse>
        <filter x="-4.2%" y="-4.2%" width="108.3%" height="108.3%" filterUnits="objectBoundingBox" id="filter-2">
            <feGaussianBlur stdDeviation="1" in="SourceAlpha" result="shadowBlurInner1"></feGaussianBlur>
            <feOffset dx="0" dy="0" in="shadowBlurInner1" result="shadowOffsetInner1"></feOffset>
            <feComposite in="shadowOffsetInner1" in2="SourceAlpha" operator="arithmetic" k2="-1" k3="1" result="shadowInnerInner1"></feComposite>
            <feColorMatrix values="0 0 0 0 0   0 0 0 0 0   0 0 0 0 0  0 0 0 0.039232337 0" type="matrix" in="shadowInnerInner1" result="shadowMatrixInner1"></feColorMatrix>
            <feOffset dx="0" dy="-1" in="SourceAlpha" result="shadowOffsetInner2"></feOffset>
            <feComposite in="shadowOffsetInner2" in2="SourceAlpha" operator="arithmetic" k2="-1" k3="1" result="shadowInnerInner2"></feComposite>
            <feColorMatrix values="0 0 0 0 0   0 0 0 0 0   0 0 0 0 0  0 0 0 0.03125 0" type="matrix" in="shadowInnerInner2" result="shadowMatrixInner2"></feColorMatrix>
            <feMerge>
                <feMergeNode in="shadowMatrixInner1"></feMergeNode>
                <feMergeNode in="shadowMatrixInner2"></feMergeNode>
            </feMerge>
        </filter>
    </defs>
    <g id="Page-1" stroke="none" stroke-width="1" fill="none" fill-rule="evenodd">
        <g id="smaller" transform="translate(-87.000000, 0.000000)">
            <g id="EUR-Copy" transform="translate(87.952043, 0.000000)">
                <ellipse id="Oval" fill="#284499" cx="12" cy="12" rx="12" ry="12"></ellipse>
                <path d="M12.3542927,5.65101946 C12.1344864,5.53546044 11.7726153,5.53834916 11.5583036,5.65101946 L11.1787222,5.85057722 C10.9589159,5.96613624 10.815808,5.85528143 10.8567378,5.6166419 L10.9292314,5.19397178 C10.9712107,4.94921385 10.8566391,4.60594663 10.6832573,4.43694117 L10.3761695,4.13760453 C10.1983424,3.964266 10.2595488,3.79390626 10.4991566,3.75908923 L10.9235415,3.69742249 C11.1692924,3.66171279 11.4603544,3.44667326 11.5675102,3.22955184 L11.7573009,2.84499386 C11.867204,2.62230574 12.0481396,2.62787244 12.1552954,2.84499386 L12.3450861,3.22955184 C12.4549893,3.45223996 12.7494471,3.66260545 12.9890548,3.69742249 L13.4134398,3.75908923 C13.6591907,3.79479893 13.7098086,3.96859908 13.5364268,4.13760453 L13.229339,4.43694117 C13.051512,4.6102797 12.942435,4.95533225 12.9833649,5.19397178 L13.0558585,5.6166419 C13.0978377,5.86139983 12.9481858,5.96324753 12.7338741,5.85057722 L12.3542927,5.65101946 Z M12.3542927,20.8510195 C12.1344864,20.7354604 11.7726153,20.7383492 11.5583036,20.8510195 L11.1787222,21.0505772 C10.9589159,21.1661362 10.815808,21.0552814 10.8567378,20.8166419 L10.9292314,20.3939718 C10.9712107,20.1492139 10.8566391,19.8059466 10.6832573,19.6369412 L10.3761695,19.3376045 C10.1983424,19.164266 10.2595488,18.9939063 10.4991566,18.9590892 L10.9235415,18.8974225 C11.1692924,18.8617128 11.4603544,18.6466733 11.5675102,18.4295518 L11.7573009,18.0449939 C11.867204,17.8223057 12.0481396,17.8278724 12.1552954,18.0449939 L12.3450861,18.4295518 C12.4549893,18.65224 12.7494471,18.8626054 12.9890548,18.8974225 L13.4134398,18.9590892 C13.6591907,18.9947989 13.7098086,19.1685991 13.5364268,19.3376045 L13.229339,19.6369412 C13.051512,19.8102797 12.942435,20.1553322 12.9833649,20.3939718 L13.0558585,20.8166419 C13.0978377,21.0613998 12.9481858,21.1632475 12.7338741,21.0505772 L12.3542927,20.8510195 Z M4.75429271,13.2510195 C4.53448639,13.1354604 4.17261527,13.1383492 3.95830361,13.2510195 L3.5787222,13.4505772 C3.35891588,13.5661362 3.21580797,13.4552814 3.25673785,13.2166419 L3.32923145,12.7939718 C3.37121072,12.5492139 3.25663906,12.2059466 3.08325729,12.0369412 L2.77616948,11.7376045 C2.59834243,11.564266 2.65954884,11.3939063 2.89915656,11.3590892 L3.32354148,11.2974225 C3.56929241,11.2617128 3.86035435,11.0466733 3.96751018,10.8295518 L4.15730089,10.4449939 C4.26720405,10.2223057 4.44813961,10.2278724 4.55529543,10.4449939 L4.74508614,10.8295518 C4.8549893,11.05224 5.14944713,11.2626054 5.38905484,11.2974225 L5.81343976,11.3590892 C6.0591907,11.3947989 6.10980861,11.5685991 5.93642684,11.7376045 L5.62933903,12.0369412 C5.45151198,12.2102797 5.34243499,12.5553322 5.38336487,12.7939718 L5.45585847,13.2166419 C5.49783774,13.4613998 5.34818577,13.5632475 5.13387412,13.4505772 L4.75429271,13.2510195 Z M19.9542927,13.2510195 C19.7344864,13.1354604 19.3726153,13.1383492 19.1583036,13.2510195 L18.7787222,13.4505772 C18.5589159,13.5661362 18.415808,13.4552814 18.4567378,13.2166419 L18.5292314,12.7939718 C18.5712107,12.5492139 18.4566391,12.2059466 18.2832573,12.0369412 L17.9761695,11.7376045 C17.7983424,11.564266 17.8595488,11.3939063 18.0991566,11.3590892 L18.5235415,11.2974225 C18.7692924,11.2617128 19.0603544,11.0466733 19.1675102,10.8295518 L19.3573009,10.4449939 C19.467204,10.2223057 19.6481396,10.2278724 19.7552954,10.4449939 L19.9450861,10.8295518 C20.0549893,11.05224 20.3494471,11.2626054 20.5890548,11.2974225 L21.0134398,11.3590892 C21.2591907,11.3947989 21.3098086,11.5685991 21.1364268,11.7376045 L20.829339,12.0369412 C20.651512,12.2102797 20.542435,12.5553322 20.5833649,12.7939718 L20.6558585,13.2166419 C20.6978377,13.4613998 20.5481858,13.5632475 20.3338741,13.4505772 L19.9542927,13.2510195 Z M6.95429271,8.05101946 C6.73448639,7.93546044 6.37261527,7.93834916 6.15830361,8.05101946 L5.7787222,8.25057722 C5.55891588,8.36613624 5.41580797,8.25528143 5.45673785,8.0166419 L5.52923145,7.59397178 C5.57121072,7.34921385 5.45663906,7.00594663 5.28325729,6.83694117 L4.97616948,6.53760453 C4.79834243,6.364266 4.85954884,6.19390626 5.09915656,6.15908923 L5.52354148,6.09742249 C5.76929241,6.06171279 6.06035435,5.84667326 6.16751018,5.62955184 L6.35730089,5.24499386 C6.46720405,5.02230574 6.64813961,5.02787244 6.75529543,5.24499386 L6.94508614,5.62955184 C7.0549893,5.85223996 7.34944713,6.06260545 7.58905484,6.09742249 L8.01343976,6.15908923 C8.2591907,6.19479893 8.30980861,6.36859908 8.13642684,6.53760453 L7.82933903,6.83694117 C7.65151198,7.0102797 7.54243499,7.35533225 7.58336487,7.59397178 L7.65585847,8.0166419 C7.69783774,8.26139983 7.54818577,8.36324753 7.33387412,8.25057722 L6.95429271,8.05101946 Z M17.7542927,8.05101946 C17.5344864,7.93546044 17.1726153,7.93834916 16.9583036,8.05101946 L16.5787222,8.25057722 C16.3589159,8.36613624 16.215808,8.25528143 16.2567378,8.0166419 L16.3292314,7.59397178 C16.3712107,7.34921385 16.2566391,7.00594663 16.0832573,6.83694117 L15.7761695,6.53760453 C15.5983424,6.364266 15.6595488,6.19390626 15.8991566,6.15908923 L16.3235415,6.09742249 C16.5692924,6.06171279 16.8603544,5.84667326 16.9675102,5.62955184 L17.1573009,5.24499386 C17.267204,5.02230574 17.4481396,5.02787244 17.5552954,5.24499386 L17.7450861,5.62955184 C17.8549893,5.85223996 18.1494471,6.06260545 18.3890548,6.09742249 L18.8134398,6.15908923 C19.0591907,6.19479893 19.1098086,6.36859908 18.9364268,6.53760453 L18.629339,6.83694117 C18.451512,7.0102797 18.342435,7.35533225 18.3833649,7.59397178 L18.4558585,8.0166419 C18.4978377,8.26139983 18.3481858,8.36324753 18.1338741,8.25057722 L17.7542927,8.05101946 Z M6.95429271,18.4510195 C6.73448639,18.3354604 6.37261527,18.3383492 6.15830361,18.4510195 L5.7787222,18.6505772 C5.55891588,18.7661362 5.41580797,18.6552814 5.45673785,18.4166419 L5.52923145,17.9939718 C5.57121072,17.7492139 5.45663906,17.4059466 5.28325729,17.2369412 L4.97616948,16.9376045 C4.79834243,16.764266 4.85954884,16.5939063 5.09915656,16.5590892 L5.52354148,16.4974225 C5.76929241,16.4617128 6.06035435,16.2466733 6.16751018,16.0295518 L6.35730089,15.6449939 C6.46720405,15.4223057 6.64813961,15.4278724 6.75529543,15.6449939 L6.94508614,16.0295518 C7.0549893,16.25224 7.34944713,16.4626054 7.58905484,16.4974225 L8.01343976,16.5590892 C8.2591907,16.5947989 8.30980861,16.7685991 8.13642684,16.9376045 L7.82933903,17.2369412 C7.65151198,17.4102797 7.54243499,17.7553322 7.58336487,17.9939718 L7.65585847,18.4166419 C7.69783774,18.6613998 7.54818577,18.7632475 7.33387412,18.6505772 L6.95429271,18.4510195 Z M17.7542927,18.4510195 C17.5344864,18.3354604 17.1726153,18.3383492 16.9583036,18.4510195 L16.5787222,18.6505772 C16.3589159,18.7661362 16.215808,18.6552814 16.2567378,18.4166419 L16.3292314,17.9939718 C16.3712107,17.7492139 16.2566391,17.4059466 16.0832573,17.2369412 L15.7761695,16.9376045 C15.5983424,16.764266 15.6595488,16.5939063 15.8991566,16.5590892 L16.3235415,16.4974225 C16.5692924,16.4617128 16.8603544,16.2466733 16.9675102,16.0295518 L17.1573009,15.6449939 C17.267204,15.4223057 17.4481396,15.4278724 17.5552954,15.6449939 L17.7450861,16.0295518 C17.8549893,16.25224 18.1494471,16.4626054 18.3890548,16.4974225 L18.8134398,16.5590892 C19.0591907,16.5947989 19.1098086,16.7685991 18.9364268,16.9376045 L18.629339,17.2369412 C18.451512,17.4102797 18.342435,17.7553322 18.3833649,17.9939718 L18.4558585,18.4166419 C18.4978377,18.6613998 18.3481858,18.7632475 18.1338741,18.6505772 L17.7542927,18.4510195 Z" id="stars" fill="#FFC428"></path>
                <g id="Oval-Copy-5" fill-opacity="1" fill="black">
                    <use filter="url(#filter-2)" xlink:href="#path-1"></use>
                </g>
            </g>
        </g>
    </g>
</svg>