<?xml version="1.0" encoding="UTF-8"?>
<svg width="24px" height="24px" viewBox="0 0 24 24" version="1.1" xmlns="http://www.w3.org/2000/svg" xmlns:xlink="http://www.w3.org/1999/xlink">
    <!-- Generator: Sketch 43 (38999) - http://www.bohemiancoding.com/sketch -->
    <title>USD Copy</title>
    <desc>Created with Sketch.</desc>
    <defs>
        <ellipse id="path-1" cx="11.6825884" cy="11.9008264" rx="11.6825884" ry="11.9008264"></ellipse>
        <ellipse id="path-3" cx="11.6825884" cy="11.9008264" rx="11.6825884" ry="11.9008264"></ellipse>
        <filter x="-4.3%" y="-4.2%" width="108.6%" height="108.4%" filterUnits="objectBoundingBox" id="filter-4">
            <feGaussianBlur stdDeviation="1" in="SourceAlpha" result="shadowBlurInner1"></feGaussianBlur>
            <feOffset dx="0" dy="0" in="shadowBlurInner1" result="shadowOffsetInner1"></feOffset>
            <feComposite in="shadowOffsetInner1" in2="SourceAlpha" operator="arithmetic" k2="-1" k3="1" result="shadowInnerInner1"></feComposite>
            <feColorMatrix values="0 0 0 0 0   0 0 0 0 0   0 0 0 0 0  0 0 0 0.039232337 0" type="matrix" in="shadowInnerInner1" result="shadowMatrixInner1"></feColorMatrix>
            <feOffset dx="0" dy="-1" in="SourceAlpha" result="shadowOffsetInner2"></feOffset>
            <feComposite in="shadowOffsetInner2" in2="SourceAlpha" operator="arithmetic" k2="-1" k3="1" result="shadowInnerInner2"></feComposite>
            <feColorMatrix values="0 0 0 0 0   0 0 0 0 0   0 0 0 0 0  0 0 0 0.03125 0" type="matrix" in="shadowInnerInner2" result="shadowMatrixInner2"></feColorMatrix>
            <feMerge>
                <feMergeNode in="shadowMatrixInner1"></feMergeNode>
                <feMergeNode in="shadowMatrixInner2"></feMergeNode>
            </feMerge>
        </filter>
    </defs>
    <g id="Page-1" stroke="none" stroke-width="1" fill="none" fill-rule="evenodd">
        <g id="smaller" transform="translate(-45.000000, 0.000000)">
            <g id="USD-Copy" transform="translate(45.026643, 0.000000)">
                <g id="Rectangle-3">
                    <mask id="mask-2" fill="white">
                        <use xlink:href="#path-1"></use>
                    </mask>
                    <use id="Mask" fill="#F23434" xlink:href="#path-1"></use>
                    <rect id="Rectangle-2" fill="#FFFFFF" mask="url(#mask-2)" x="0" y="11.9008264" width="24.3387259" height="3.96694215"></rect>
                    <rect id="Rectangle-2-Copy-2" fill="#FFFFFF" mask="url(#mask-2)" x="0" y="19.8347107" width="24.3387259" height="3.96694215"></rect>
                    <rect id="Rectangle-2-Copy" fill="#FFFFFF" mask="url(#mask-2)" x="11.6825884" y="3.96694215" width="12.2667179" height="3.96694215"></rect>
                    <rect fill="#097BF5" mask="url(#mask-2)" x="0" y="0" width="11.6825884" height="11.9008264"></rect>
                </g>
                <g id="Oval-Copy-4" fill-opacity="1" fill="black">
                    <use filter="url(#filter-4)" xlink:href="#path-3"></use>
                </g>
                <path d="M9.55076417,10.2923557 C9.40096961,10.2121329 9.15436011,10.2141383 9.00831008,10.2923557 L8.7496313,10.4308917 C8.59983674,10.5111145 8.50231093,10.4341574 8.53020401,10.2684903 L8.57960726,9.97506642 C8.60821548,9.80515183 8.53013669,9.56685061 8.41197973,9.44952451 L8.2027042,9.24172056 C8.08151785,9.12138638 8.12322906,9.00312011 8.28651796,8.97894961 L8.57572963,8.93613964 C8.74320504,8.91134943 8.9415592,8.7620658 9.01458421,8.61133687 L9.1439236,8.34437101 C9.21882088,8.1897776 9.34212563,8.19364209 9.41515065,8.34437101 L9.54449004,8.61133687 C9.61938732,8.76593028 9.82005572,8.91196913 9.98334462,8.93613964 L10.2725563,8.97894961 C10.4400317,9.00373981 10.474527,9.12439446 10.3563701,9.24172056 L10.1470945,9.44952451 C10.0259082,9.5698587 9.95157392,9.80939931 9.97946699,9.97506642 L10.0288702,10.2684903 C10.0574785,10.4384049 9.95549299,10.5091091 9.80944295,10.4308917 L9.55076417,10.2923557 Z M6.04598764,10.2923557 C5.89619308,10.2121329 5.64958358,10.2141383 5.50353355,10.2923557 L5.24485476,10.4308917 C5.0950602,10.5111145 4.9975344,10.4341574 5.02542747,10.2684903 L5.07483073,9.97506642 C5.10343894,9.80515183 5.02536015,9.56685061 4.90720319,9.44952451 L4.69792766,9.24172056 C4.57674132,9.12138638 4.61845253,9.00312011 4.78174143,8.97894961 L5.0709531,8.93613964 C5.23842851,8.91134943 5.43678266,8.7620658 5.50980768,8.61133687 L5.63914707,8.34437101 C5.71404435,8.1897776 5.8373491,8.19364209 5.91037411,8.34437101 L6.03971351,8.61133687 C6.11461079,8.76593028 6.31527918,8.91196913 6.47856808,8.93613964 L6.76777975,8.97894961 C6.93525516,9.00373981 6.96975048,9.12439446 6.85159352,9.24172056 L6.64231799,9.44952451 C6.52113164,9.5698587 6.44679738,9.80939931 6.47469046,9.97506642 L6.52409371,10.2684903 C6.55270192,10.4384049 6.45071645,10.5091091 6.30466642,10.4308917 L6.04598764,10.2923557 Z M2.5412111,10.2923557 C2.39141654,10.2121329 2.14480704,10.2141383 1.99875701,10.2923557 L1.74007823,10.4308917 C1.59028367,10.5111145 1.49275786,10.4341574 1.52065094,10.2684903 L1.57005419,9.97506642 C1.59866241,9.80515183 1.52058362,9.56685061 1.40242666,9.44952451 L1.19315113,9.24172056 C1.07196478,9.12138638 1.11367599,9.00312011 1.27696489,8.97894961 L1.56617656,8.93613964 C1.73365197,8.91134943 1.93200613,8.7620658 2.00503114,8.61133687 L2.13437053,8.34437101 C2.20926781,8.1897776 2.33257256,8.19364209 2.40559758,8.34437101 L2.53493697,8.61133687 C2.60983425,8.76593028 2.81050265,8.91196913 2.97379155,8.93613964 L3.26300322,8.97894961 C3.43047863,9.00373981 3.46497395,9.12439446 3.34681699,9.24172056 L3.13754145,9.44952451 C3.01635511,9.5698587 2.94202085,9.80939931 2.96991392,9.97506642 L3.01931717,10.2684903 C3.04792539,10.4384049 2.94593992,10.5091091 2.79988988,10.4308917 L2.5412111,10.2923557 Z M9.55076417,4.73863671 C9.40096961,4.65841392 9.15436011,4.66041931 9.00831008,4.73863671 L8.7496313,4.87717268 C8.59983674,4.95739547 8.50231093,4.88043841 8.53020401,4.7147713 L8.57960726,4.42134741 C8.60821548,4.25143282 8.53013669,4.0131316 8.41197973,3.8958055 L8.2027042,3.68800156 C8.08151785,3.56766737 8.12322906,3.4494011 8.28651796,3.4252306 L8.57572963,3.38242063 C8.74320504,3.35763043 8.9415592,3.20834679 9.01458421,3.05761787 L9.1439236,2.790652 C9.21882088,2.63605859 9.34212563,2.63992308 9.41515065,2.790652 L9.54449004,3.05761787 C9.61938732,3.21221127 9.82005572,3.35825012 9.98334462,3.38242063 L10.2725563,3.4252306 C10.4400317,3.4500208 10.474527,3.57067545 10.3563701,3.68800156 L10.1470945,3.8958055 C10.0259082,4.01613969 9.95157392,4.2556803 9.97946699,4.42134741 L10.0288702,4.7147713 C10.0574785,4.88468589 9.95549299,4.95539008 9.80944295,4.87717268 L9.55076417,4.73863671 Z M6.04598764,4.73863671 C5.89619308,4.65841392 5.64958358,4.66041931 5.50353355,4.73863671 L5.24485476,4.87717268 C5.0950602,4.95739547 4.9975344,4.88043841 5.02542747,4.7147713 L5.07483073,4.42134741 C5.10343894,4.25143282 5.02536015,4.0131316 4.90720319,3.8958055 L4.69792766,3.68800156 C4.57674132,3.56766737 4.61845253,3.4494011 4.78174143,3.4252306 L5.0709531,3.38242063 C5.23842851,3.35763043 5.43678266,3.20834679 5.50980768,3.05761787 L5.63914707,2.790652 C5.71404435,2.63605859 5.8373491,2.63992308 5.91037411,2.790652 L6.03971351,3.05761787 C6.11461079,3.21221127 6.31527918,3.35825012 6.47856808,3.38242063 L6.76777975,3.4252306 C6.93525516,3.4500208 6.96975048,3.57067545 6.85159352,3.68800156 L6.64231799,3.8958055 C6.52113164,4.01613969 6.44679738,4.2556803 6.47469046,4.42134741 L6.52409371,4.7147713 C6.55270192,4.88468589 6.45071645,4.95539008 6.30466642,4.87717268 L6.04598764,4.73863671 Z M7.7983759,7.51549622 C7.64858134,7.43527343 7.40197185,7.43727882 7.25592181,7.51549622 L6.99724303,7.65403218 C6.84744847,7.73425497 6.74992267,7.65729791 6.77781574,7.4916308 L6.82721899,7.19820692 C6.85582721,7.02829232 6.77774842,6.78999111 6.65959146,6.67266501 L6.45031593,6.46486106 C6.32912958,6.34452687 6.37084079,6.22626061 6.5341297,6.2020901 L6.82334137,6.15928014 C6.99081678,6.13448993 7.18917093,5.98520629 7.26219594,5.83447737 L7.39153534,5.5675115 C7.46643262,5.4129181 7.58973736,5.41678258 7.66276238,5.5675115 L7.79210177,5.83447737 C7.86699905,5.98907078 8.06766745,6.13510963 8.23095635,6.15928014 L8.52016802,6.2020901 C8.68764343,6.22688031 8.72213875,6.34753496 8.60398179,6.46486106 L8.39470626,6.67266501 C8.27351991,6.79299919 8.19918565,7.0325398 8.22707872,7.19820692 L8.27648198,7.4916308 C8.30509019,7.6615454 8.20310472,7.73224958 8.05705469,7.65403218 L7.7983759,7.51549622 Z M4.29359937,7.51549622 C4.14380481,7.43527343 3.89719531,7.43727882 3.75114528,7.51549622 L3.4924665,7.65403218 C3.34267193,7.73425497 3.24514613,7.65729791 3.27303921,7.4916308 L3.32244246,7.19820692 C3.35105067,7.02829232 3.27297189,6.78999111 3.15481493,6.67266501 L2.94553939,6.46486106 C2.82435305,6.34452687 2.86606426,6.22626061 3.02935316,6.2020901 L3.31856483,6.15928014 C3.48604024,6.13448993 3.68439439,5.98520629 3.75741941,5.83447737 L3.8867588,5.5675115 C3.96165608,5.4129181 4.08496083,5.41678258 4.15798585,5.5675115 L4.28732524,5.83447737 C4.36222252,5.98907078 4.56289091,6.13510963 4.72617982,6.15928014 L5.01539149,6.2020901 C5.1828669,6.22688031 5.21736221,6.34753496 5.09920525,6.46486106 L4.88992972,6.67266501 C4.76874338,6.79299919 4.69440911,7.0325398 4.72230219,7.19820692 L4.77170544,7.4916308 C4.80031366,7.6615454 4.69832819,7.73224958 4.55227815,7.65403218 L4.29359937,7.51549622 Z" id="stars" fill="#FFFFFF"></path>
            </g>
        </g>
    </g>
</svg>