<?xml version="1.0" encoding="UTF-8"?>
<svg width="18px" height="18px" viewBox="0 0 18 18" version="1.1" xmlns="http://www.w3.org/2000/svg" xmlns:xlink="http://www.w3.org/1999/xlink">
    <!-- Generator: Sketch 43 (38999) - http://www.bohemiancoding.com/sketch -->
    <title>&lt;- -&gt; copy 2</title>
    <desc>Created with Sketch.</desc>
    <defs></defs>
    <g id="Pages" stroke="none" stroke-width="1" fill="none" fill-rule="evenodd">
        <g id="Dashboard-+-addons" transform="translate(-234.000000, -901.000000)">
            <g id="base" transform="translate(-13.000000, 0.000000)">
                <g id="Currency" transform="translate(213.000000, 836.000000)">
                    <g id="row-copy" transform="translate(0.000000, 65.000000)">
                        <g id="&lt;---&gt;-copy-2" transform="translate(34.000000, 0.000000)">
                            <circle id="Oval-12" fill="#F3F4F7" cx="9" cy="9" r="9"></circle>
                            <g id="Group" transform="translate(3.000000, 2.000000)" fill="#888FA2">
                                <path d="M0.189339828,4 L0,4 L0,4.75 C0,5.16710138 0.336514109,5.5 0.751625299,5.5 L10,5.5 L10,4 L2.31066017,4 L4.83919079,1.47146938 C5.13626538,1.17439479 5.1390873,0.696699141 4.84619408,0.403805922 C4.55125886,0.108870706 4.07529165,0.114048183 3.77853062,0.410809211 L0.189339828,4 L0.189339828,4 Z" id="Combined-Shape"></path>
                            </g>
                            <g id="Group-Copy" transform="translate(10.000000, 12.000000) scale(-1, -1) translate(-10.000000, -12.000000) translate(5.000000, 9.000000)" fill="#888FA2">
                                <path d="M0.189339828,4 L0,4 L0,4.75 C0,5.16710138 0.336514109,5.5 0.751625299,5.5 L10,5.5 L10,4 L2.31066017,4 L4.83919079,1.47146938 C5.13626538,1.17439479 5.1390873,0.696699141 4.84619408,0.403805922 C4.55125886,0.108870706 4.07529165,0.114048183 3.77853062,0.410809211 L0.189339828,4 L0.189339828,4 Z" id="Combined-Shape"></path>
                            </g>
                        </g>
                    </g>
                </g>
            </g>
        </g>
    </g>
</svg>